<svg xmlns="http://www.w3.org/2000/svg" width="881.333" height="881.333"><g fill-rule="evenodd"><path d="M0 881.333h881.336V0H0v881.333" fill="#7bd4f5"/><path d="M440.668 648.476c143.221 0 260.03-116.81 260.03-260.032 0-143.221-116.809-260.033-260.03-260.033-143.221 0-260.033 116.812-260.033 260.033s116.812 260.032 260.033 260.032" fill="#91dcf7"/><path d="M440.668 560.861c94.965 0 172.416-77.453 172.416-172.417 0-94.965-77.45-172.417-172.416-172.417-94.964 0-172.417 77.452-172.417 172.417 0 94.964 77.453 172.417 172.417 172.417" fill="#fff"/><path d="M881.336 526.675v354.658H0V554.501c230.165 30.974 240.537-178.725 510.639-148.428 48.802 47.8 174.32 139.144 370.697 120.602" fill="#fbc907"/><path d="M881.336 526.675v354.658H490.159c-260.468-121.66-154.031-479.529 20.48-475.26 48.802 47.8 174.32 139.144 370.697 120.602M230.615 881.333C106.675 827.54 78.14 677.365 197.79 589.255 40.51 631.616 15.617 809.476 107.935 881.333h122.68" fill="#f39c10"/><path d="M881.336 813.212C646.283 791.028 622.1 644.373 665.448 575.969c-13.092 78.123 54.572 185.379 215.888 177.039v60.204" fill="#df8c16"/></g></svg>